<mxfile host="Electron" agent="Mozilla/5.0 (Macintosh; Intel Mac OS X 10_15_7) AppleWebKit/537.36 (KHTML, like Gecko) draw.io/24.7.8 Chrome/128.0.6613.36 Electron/32.0.1 Safari/537.36" version="24.7.8">
  <diagram name="Page-1" id="EadPwYNy3dfp_SH2Ku7o">
    <mxGraphModel dx="1242" dy="907" grid="1" gridSize="10" guides="1" tooltips="1" connect="1" arrows="1" fold="1" page="1" pageScale="1" pageWidth="827" pageHeight="1169" math="0" shadow="0">
      <root>
        <mxCell id="0" />
        <mxCell id="1" parent="0" />
        <mxCell id="_lCngtu0op621oefFCKZ-1" value="" style="group" vertex="1" connectable="0" parent="1">
          <mxGeometry x="80" y="105" width="44" height="165" as="geometry" />
        </mxCell>
        <mxCell id="_lCngtu0op621oefFCKZ-2" value="" style="rounded=0;whiteSpace=wrap;html=1;strokeColor=none;fillStyle=solid;fillColor=#7EA6E0;container=0;" vertex="1" parent="_lCngtu0op621oefFCKZ-1">
          <mxGeometry x="2" y="120" width="40" height="45" as="geometry" />
        </mxCell>
        <mxCell id="_lCngtu0op621oefFCKZ-3" value="" style="rounded=0;whiteSpace=wrap;html=1;strokeColor=none;fillStyle=solid;fillColor=#97D077;container=0;" vertex="1" parent="_lCngtu0op621oefFCKZ-1">
          <mxGeometry x="2" y="80" width="40" height="45" as="geometry" />
        </mxCell>
        <mxCell id="_lCngtu0op621oefFCKZ-4" value="" style="rounded=0;whiteSpace=wrap;html=1;strokeColor=none;fillStyle=solid;fillColor=#FFD966;container=0;" vertex="1" parent="_lCngtu0op621oefFCKZ-1">
          <mxGeometry x="2" y="40" width="40" height="45" as="geometry" />
        </mxCell>
        <mxCell id="_lCngtu0op621oefFCKZ-5" value="" style="rounded=0;whiteSpace=wrap;html=1;strokeColor=none;fillStyle=solid;fillColor=#EA6B66;container=0;" vertex="1" parent="_lCngtu0op621oefFCKZ-1">
          <mxGeometry x="2" y="5" width="40" height="40" as="geometry" />
        </mxCell>
        <mxCell id="_lCngtu0op621oefFCKZ-6" value="" style="endArrow=none;html=1;rounded=0;strokeWidth=4;" edge="1" parent="_lCngtu0op621oefFCKZ-1">
          <mxGeometry width="50" height="50" relative="1" as="geometry">
            <mxPoint x="42" y="165" as="sourcePoint" />
            <mxPoint x="42" as="targetPoint" />
          </mxGeometry>
        </mxCell>
        <mxCell id="_lCngtu0op621oefFCKZ-7" value="" style="endArrow=none;html=1;rounded=0;strokeWidth=4;" edge="1" parent="_lCngtu0op621oefFCKZ-1">
          <mxGeometry width="50" height="50" relative="1" as="geometry">
            <mxPoint x="2" y="165" as="sourcePoint" />
            <mxPoint x="2" as="targetPoint" />
          </mxGeometry>
        </mxCell>
        <mxCell id="_lCngtu0op621oefFCKZ-8" value="" style="endArrow=none;html=1;rounded=0;strokeWidth=4;" edge="1" parent="_lCngtu0op621oefFCKZ-1">
          <mxGeometry width="50" height="50" relative="1" as="geometry">
            <mxPoint x="44" y="165" as="sourcePoint" />
            <mxPoint y="165" as="targetPoint" />
          </mxGeometry>
        </mxCell>
        <mxCell id="_lCngtu0op621oefFCKZ-9" value="" style="group" vertex="1" connectable="0" parent="1">
          <mxGeometry x="140" y="105" width="44" height="165" as="geometry" />
        </mxCell>
        <mxCell id="_lCngtu0op621oefFCKZ-10" value="" style="endArrow=none;html=1;rounded=0;strokeWidth=4;" edge="1" parent="_lCngtu0op621oefFCKZ-9">
          <mxGeometry width="50" height="50" relative="1" as="geometry">
            <mxPoint x="2" y="165" as="sourcePoint" />
            <mxPoint x="2" as="targetPoint" />
          </mxGeometry>
        </mxCell>
        <mxCell id="_lCngtu0op621oefFCKZ-11" value="" style="endArrow=none;html=1;rounded=0;strokeWidth=4;" edge="1" parent="_lCngtu0op621oefFCKZ-9">
          <mxGeometry width="50" height="50" relative="1" as="geometry">
            <mxPoint x="42" y="165" as="sourcePoint" />
            <mxPoint x="42" as="targetPoint" />
          </mxGeometry>
        </mxCell>
        <mxCell id="_lCngtu0op621oefFCKZ-12" value="" style="endArrow=none;html=1;rounded=0;strokeWidth=4;" edge="1" parent="_lCngtu0op621oefFCKZ-9">
          <mxGeometry width="50" height="50" relative="1" as="geometry">
            <mxPoint x="44" y="165" as="sourcePoint" />
            <mxPoint y="165" as="targetPoint" />
          </mxGeometry>
        </mxCell>
        <mxCell id="_lCngtu0op621oefFCKZ-13" value="" style="endArrow=classic;html=1;rounded=0;curved=1;strokeWidth=4;" edge="1" parent="1">
          <mxGeometry width="50" height="50" relative="1" as="geometry">
            <mxPoint x="100" y="100" as="sourcePoint" />
            <mxPoint x="160" y="100" as="targetPoint" />
            <Array as="points">
              <mxPoint x="100" y="70" />
              <mxPoint x="130" y="50" />
              <mxPoint x="160" y="70" />
            </Array>
          </mxGeometry>
        </mxCell>
        <mxCell id="_lCngtu0op621oefFCKZ-14" value="" style="group" vertex="1" connectable="0" parent="1">
          <mxGeometry x="260" y="105" width="44" height="165" as="geometry" />
        </mxCell>
        <mxCell id="_lCngtu0op621oefFCKZ-15" value="" style="rounded=0;whiteSpace=wrap;html=1;strokeColor=none;fillStyle=solid;fillColor=#7EA6E0;container=0;" vertex="1" parent="_lCngtu0op621oefFCKZ-14">
          <mxGeometry x="2" y="120" width="40" height="45" as="geometry" />
        </mxCell>
        <mxCell id="_lCngtu0op621oefFCKZ-16" value="" style="rounded=0;whiteSpace=wrap;html=1;strokeColor=none;fillStyle=solid;fillColor=#97D077;container=0;" vertex="1" parent="_lCngtu0op621oefFCKZ-14">
          <mxGeometry x="2" y="80" width="40" height="45" as="geometry" />
        </mxCell>
        <mxCell id="_lCngtu0op621oefFCKZ-17" value="" style="rounded=0;whiteSpace=wrap;html=1;strokeColor=none;fillStyle=solid;fillColor=#FFD966;container=0;" vertex="1" parent="_lCngtu0op621oefFCKZ-14">
          <mxGeometry x="2" y="45" width="40" height="40" as="geometry" />
        </mxCell>
        <mxCell id="_lCngtu0op621oefFCKZ-18" value="" style="endArrow=none;html=1;rounded=0;strokeWidth=4;" edge="1" parent="_lCngtu0op621oefFCKZ-14">
          <mxGeometry width="50" height="50" relative="1" as="geometry">
            <mxPoint x="42" y="165" as="sourcePoint" />
            <mxPoint x="42" as="targetPoint" />
          </mxGeometry>
        </mxCell>
        <mxCell id="_lCngtu0op621oefFCKZ-19" value="" style="endArrow=none;html=1;rounded=0;strokeWidth=4;" edge="1" parent="_lCngtu0op621oefFCKZ-14">
          <mxGeometry width="50" height="50" relative="1" as="geometry">
            <mxPoint x="2" y="165" as="sourcePoint" />
            <mxPoint x="2" as="targetPoint" />
          </mxGeometry>
        </mxCell>
        <mxCell id="_lCngtu0op621oefFCKZ-20" value="" style="endArrow=none;html=1;rounded=0;strokeWidth=4;" edge="1" parent="_lCngtu0op621oefFCKZ-14">
          <mxGeometry width="50" height="50" relative="1" as="geometry">
            <mxPoint x="44" y="165" as="sourcePoint" />
            <mxPoint y="165" as="targetPoint" />
          </mxGeometry>
        </mxCell>
        <mxCell id="_lCngtu0op621oefFCKZ-21" value="" style="group" vertex="1" connectable="0" parent="1">
          <mxGeometry x="320" y="105" width="44" height="165" as="geometry" />
        </mxCell>
        <mxCell id="_lCngtu0op621oefFCKZ-22" value="" style="rounded=0;whiteSpace=wrap;html=1;strokeColor=none;fillStyle=solid;fillColor=#EA6B66;container=0;" vertex="1" parent="_lCngtu0op621oefFCKZ-21">
          <mxGeometry x="2" y="125" width="40" height="40" as="geometry" />
        </mxCell>
        <mxCell id="_lCngtu0op621oefFCKZ-23" value="" style="endArrow=none;html=1;rounded=0;strokeWidth=4;" edge="1" parent="_lCngtu0op621oefFCKZ-21">
          <mxGeometry width="50" height="50" relative="1" as="geometry">
            <mxPoint x="2" y="165" as="sourcePoint" />
            <mxPoint x="2" as="targetPoint" />
          </mxGeometry>
        </mxCell>
        <mxCell id="_lCngtu0op621oefFCKZ-24" value="" style="endArrow=none;html=1;rounded=0;strokeWidth=4;" edge="1" parent="_lCngtu0op621oefFCKZ-21">
          <mxGeometry width="50" height="50" relative="1" as="geometry">
            <mxPoint x="42" y="165" as="sourcePoint" />
            <mxPoint x="42" as="targetPoint" />
          </mxGeometry>
        </mxCell>
        <mxCell id="_lCngtu0op621oefFCKZ-25" value="" style="endArrow=none;html=1;rounded=0;strokeWidth=4;" edge="1" parent="_lCngtu0op621oefFCKZ-21">
          <mxGeometry width="50" height="50" relative="1" as="geometry">
            <mxPoint x="44" y="165" as="sourcePoint" />
            <mxPoint y="165" as="targetPoint" />
          </mxGeometry>
        </mxCell>
        <mxCell id="_lCngtu0op621oefFCKZ-26" value="" style="endArrow=classic;html=1;rounded=0;curved=1;strokeWidth=4;" edge="1" parent="1">
          <mxGeometry width="50" height="50" relative="1" as="geometry">
            <mxPoint x="200" y="190" as="sourcePoint" />
            <mxPoint x="240" y="190" as="targetPoint" />
            <Array as="points" />
          </mxGeometry>
        </mxCell>
        <mxCell id="_lCngtu0op621oefFCKZ-27" value="" style="group" vertex="1" connectable="0" parent="1">
          <mxGeometry x="480" y="105" width="44" height="165" as="geometry" />
        </mxCell>
        <mxCell id="_lCngtu0op621oefFCKZ-28" value="" style="rounded=0;whiteSpace=wrap;html=1;strokeColor=none;fillStyle=solid;fillColor=#7EA6E0;container=0;" vertex="1" parent="_lCngtu0op621oefFCKZ-27">
          <mxGeometry x="2" y="120" width="40" height="45" as="geometry" />
        </mxCell>
        <mxCell id="_lCngtu0op621oefFCKZ-29" value="" style="rounded=0;whiteSpace=wrap;html=1;strokeColor=none;fillStyle=solid;fillColor=#FFD966;container=0;" vertex="1" parent="_lCngtu0op621oefFCKZ-27">
          <mxGeometry x="2" y="80" width="40" height="45" as="geometry" />
        </mxCell>
        <mxCell id="_lCngtu0op621oefFCKZ-30" value="" style="rounded=0;whiteSpace=wrap;html=1;strokeColor=none;fillStyle=solid;fillColor=#FFD966;container=0;" vertex="1" parent="_lCngtu0op621oefFCKZ-27">
          <mxGeometry x="2" y="45" width="40" height="40" as="geometry" />
        </mxCell>
        <mxCell id="_lCngtu0op621oefFCKZ-31" value="" style="endArrow=none;html=1;rounded=0;strokeWidth=4;" edge="1" parent="_lCngtu0op621oefFCKZ-27">
          <mxGeometry width="50" height="50" relative="1" as="geometry">
            <mxPoint x="42" y="165" as="sourcePoint" />
            <mxPoint x="42" as="targetPoint" />
          </mxGeometry>
        </mxCell>
        <mxCell id="_lCngtu0op621oefFCKZ-32" value="" style="endArrow=none;html=1;rounded=0;strokeWidth=4;" edge="1" parent="_lCngtu0op621oefFCKZ-27">
          <mxGeometry width="50" height="50" relative="1" as="geometry">
            <mxPoint x="2" y="165" as="sourcePoint" />
            <mxPoint x="2" as="targetPoint" />
          </mxGeometry>
        </mxCell>
        <mxCell id="_lCngtu0op621oefFCKZ-33" value="" style="endArrow=none;html=1;rounded=0;strokeWidth=4;" edge="1" parent="_lCngtu0op621oefFCKZ-27">
          <mxGeometry width="50" height="50" relative="1" as="geometry">
            <mxPoint x="44" y="165" as="sourcePoint" />
            <mxPoint y="165" as="targetPoint" />
          </mxGeometry>
        </mxCell>
        <mxCell id="_lCngtu0op621oefFCKZ-34" value="" style="group" vertex="1" connectable="0" parent="1">
          <mxGeometry x="540" y="105" width="44" height="165" as="geometry" />
        </mxCell>
        <mxCell id="_lCngtu0op621oefFCKZ-35" value="" style="rounded=0;whiteSpace=wrap;html=1;strokeColor=none;fillStyle=solid;fillColor=#FFD966;container=0;" vertex="1" parent="_lCngtu0op621oefFCKZ-34">
          <mxGeometry x="2" y="125" width="40" height="40" as="geometry" />
        </mxCell>
        <mxCell id="_lCngtu0op621oefFCKZ-36" value="" style="endArrow=none;html=1;rounded=0;strokeWidth=4;" edge="1" parent="_lCngtu0op621oefFCKZ-34">
          <mxGeometry width="50" height="50" relative="1" as="geometry">
            <mxPoint x="2" y="165" as="sourcePoint" />
            <mxPoint x="2" as="targetPoint" />
          </mxGeometry>
        </mxCell>
        <mxCell id="_lCngtu0op621oefFCKZ-37" value="" style="endArrow=none;html=1;rounded=0;strokeWidth=4;" edge="1" parent="_lCngtu0op621oefFCKZ-34">
          <mxGeometry width="50" height="50" relative="1" as="geometry">
            <mxPoint x="42" y="165" as="sourcePoint" />
            <mxPoint x="42" as="targetPoint" />
          </mxGeometry>
        </mxCell>
        <mxCell id="_lCngtu0op621oefFCKZ-38" value="" style="endArrow=none;html=1;rounded=0;strokeWidth=4;" edge="1" parent="_lCngtu0op621oefFCKZ-34">
          <mxGeometry width="50" height="50" relative="1" as="geometry">
            <mxPoint x="44" y="165" as="sourcePoint" />
            <mxPoint y="165" as="targetPoint" />
          </mxGeometry>
        </mxCell>
        <mxCell id="_lCngtu0op621oefFCKZ-39" value="" style="endArrow=classic;html=1;rounded=0;curved=1;strokeWidth=4;" edge="1" parent="1">
          <mxGeometry width="50" height="50" relative="1" as="geometry">
            <mxPoint x="500" y="100" as="sourcePoint" />
            <mxPoint x="560" y="100" as="targetPoint" />
            <Array as="points">
              <mxPoint x="500" y="70" />
              <mxPoint x="530" y="50" />
              <mxPoint x="560" y="70" />
            </Array>
          </mxGeometry>
        </mxCell>
        <mxCell id="_lCngtu0op621oefFCKZ-40" value="" style="endArrow=classic;html=1;rounded=0;curved=1;strokeWidth=4;" edge="1" parent="1">
          <mxGeometry width="50" height="50" relative="1" as="geometry">
            <mxPoint x="600" y="190" as="sourcePoint" />
            <mxPoint x="640" y="190" as="targetPoint" />
            <Array as="points" />
          </mxGeometry>
        </mxCell>
        <mxCell id="_lCngtu0op621oefFCKZ-41" value="" style="group" vertex="1" connectable="0" parent="1">
          <mxGeometry x="660" y="105" width="44" height="165" as="geometry" />
        </mxCell>
        <mxCell id="_lCngtu0op621oefFCKZ-42" value="" style="rounded=0;whiteSpace=wrap;html=1;strokeColor=none;fillStyle=solid;fillColor=#7EA6E0;container=0;" vertex="1" parent="_lCngtu0op621oefFCKZ-41">
          <mxGeometry x="2" y="120" width="40" height="45" as="geometry" />
        </mxCell>
        <mxCell id="_lCngtu0op621oefFCKZ-43" value="" style="endArrow=none;html=1;rounded=0;strokeWidth=4;" edge="1" parent="_lCngtu0op621oefFCKZ-41">
          <mxGeometry width="50" height="50" relative="1" as="geometry">
            <mxPoint x="42" y="165" as="sourcePoint" />
            <mxPoint x="42" as="targetPoint" />
          </mxGeometry>
        </mxCell>
        <mxCell id="_lCngtu0op621oefFCKZ-44" value="" style="endArrow=none;html=1;rounded=0;strokeWidth=4;" edge="1" parent="_lCngtu0op621oefFCKZ-41">
          <mxGeometry width="50" height="50" relative="1" as="geometry">
            <mxPoint x="2" y="165" as="sourcePoint" />
            <mxPoint x="2" as="targetPoint" />
          </mxGeometry>
        </mxCell>
        <mxCell id="_lCngtu0op621oefFCKZ-45" value="" style="endArrow=none;html=1;rounded=0;strokeWidth=4;" edge="1" parent="_lCngtu0op621oefFCKZ-41">
          <mxGeometry width="50" height="50" relative="1" as="geometry">
            <mxPoint x="44" y="165" as="sourcePoint" />
            <mxPoint y="165" as="targetPoint" />
          </mxGeometry>
        </mxCell>
        <mxCell id="_lCngtu0op621oefFCKZ-46" value="" style="group" vertex="1" connectable="0" parent="1">
          <mxGeometry x="720" y="105" width="44" height="165" as="geometry" />
        </mxCell>
        <mxCell id="_lCngtu0op621oefFCKZ-47" value="" style="rounded=0;whiteSpace=wrap;html=1;strokeColor=none;fillStyle=solid;fillColor=#FFD966;container=0;" vertex="1" parent="_lCngtu0op621oefFCKZ-46">
          <mxGeometry y="45" width="40" height="40" as="geometry" />
        </mxCell>
        <mxCell id="_lCngtu0op621oefFCKZ-48" value="" style="rounded=0;whiteSpace=wrap;html=1;strokeColor=none;fillStyle=solid;fillColor=#FFD966;container=0;" vertex="1" parent="_lCngtu0op621oefFCKZ-46">
          <mxGeometry y="80" width="40" height="45" as="geometry" />
        </mxCell>
        <mxCell id="_lCngtu0op621oefFCKZ-49" value="" style="rounded=0;whiteSpace=wrap;html=1;strokeColor=none;fillStyle=solid;fillColor=#FFD966;container=0;" vertex="1" parent="_lCngtu0op621oefFCKZ-46">
          <mxGeometry x="2" y="120" width="40" height="45" as="geometry" />
        </mxCell>
        <mxCell id="_lCngtu0op621oefFCKZ-50" value="" style="endArrow=none;html=1;rounded=0;strokeWidth=4;" edge="1" parent="_lCngtu0op621oefFCKZ-46">
          <mxGeometry width="50" height="50" relative="1" as="geometry">
            <mxPoint x="2" y="165" as="sourcePoint" />
            <mxPoint x="2" as="targetPoint" />
          </mxGeometry>
        </mxCell>
        <mxCell id="_lCngtu0op621oefFCKZ-51" value="" style="endArrow=none;html=1;rounded=0;strokeWidth=4;" edge="1" parent="_lCngtu0op621oefFCKZ-46">
          <mxGeometry width="50" height="50" relative="1" as="geometry">
            <mxPoint x="42" y="165" as="sourcePoint" />
            <mxPoint x="42" as="targetPoint" />
          </mxGeometry>
        </mxCell>
        <mxCell id="_lCngtu0op621oefFCKZ-52" value="" style="endArrow=none;html=1;rounded=0;strokeWidth=4;" edge="1" parent="_lCngtu0op621oefFCKZ-46">
          <mxGeometry width="50" height="50" relative="1" as="geometry">
            <mxPoint x="44" y="165" as="sourcePoint" />
            <mxPoint y="165" as="targetPoint" />
          </mxGeometry>
        </mxCell>
      </root>
    </mxGraphModel>
  </diagram>
</mxfile>
